# xmcd
# 
# Track frame offsets:
#     150
#     12357
#     25687
#     34265
#     46680
#     63942
#     77222
#     88670
#     98077
#     109812
#     120635
#     131220
#     146512
#     156800
# 
# Disc length: 2287
# 
# Revision: 1
# Processed by: cddbd v1.5.2PL0 Copyright (c) Steve Scherf et al.
# Submitted via: fre:ac v1.0.31
# 
DISCID=b108ed0e
DTITLE=Roots of Rhythm - Adorable
DYEAR=0
DGENRE=R&B
TTITLE0=Adorable
TTITLE1=Earth Angel
TTITLE2=He's So Fine
TTITLE3=I Hear a Symphony
TTITLE4=Just My Imagination (Running Away With Me)
TTITLE5=B-A-B-Y
TTITLE6=This Little Girl of Mine
TTITLE7=Dedicated to the one I Love
TTITLE8=Tell Him
TTITLE9=Little Bitty Pretty One
TTITLE10=I Want to Walk You Home
TTITLE11=Sweet Lorraine
TTITLE12=Talk That Talk
TTITLE13=Betcha By Golly, Wow
EXTD=
EXTT0=
EXTT1=
EXTT2=
EXTT3=
EXTT4=
EXTT5=
EXTT6=
EXTT7=
EXTT8=
EXTT9=
EXTT10=
EXTT11=
EXTT12=
EXTT13=
PLAYORDER=
